# xmcd
#
# Track frame offsets: 
#        182
#        14032
#        27860
#        41037
#        50827
#        63375
#        74330
#        98822
#        111145
#        123870
#        136985
#        148322
#        161735
#        173377
#        185552
#        197612
#
# Disc length: 2866 seconds
#
# Revision: 0
# Processed by: cddbd v1.4PL0 Copyright (c) Steve Scherf et al.
# Submitted via: ExactAudioCopy v0.90b4
#
DISCID=ea0b3010
DTITLE=Various Artist - 16 All Time Blues Hits - CD 5
DYEAR=1991
DGENRE=Blues
TTITLE0=Clapton, Eric - Draggin' My Tail
TTITLE1=Howlin' Wolf - Smokestack Ligtnin'
TTITLE2=King, B. B. - When My Heart Beats Like A Hammer
TTITLE3=Hooker, John Lee - I Wanna Walk
TTITLE4=Little Walter - I Got To Find My Baby
TTITLE5=Williamson, Sonny Boy - Got To Move
TTITLE6=Hooker, John Lee - My First Wife Left Me
TTITLE7=James, Elmore- Happy Home
TTITLE8=Watson, Johnny Guitar - She Moves ME
TTITLE9=Williamson, Sonny Boy - I Never Do Wrong
TTITLE10=Waters, Muddy - Just A Dream
TTITLE11=Howlin' Wolf - Highway 49
TTITLE12=Williams, Big Joe - Ride In My New Car
TTITLE13=Little Walter - Last Night
TTITLE14=Memphis Slim - For A Day
TTITLE15=Bloomfield, Mike - Linda Lou
EXTD=All Time Music\nATM 071\n\n10 CD-Set Blues Sampler
EXTT0=
EXTT1=
EXTT2=
EXTT3=
EXTT4=
EXTT5=
EXTT6=
EXTT7=
EXTT8=
EXTT9=
EXTT10=
EXTT11=
EXTT12=
EXTT13=
EXTT14=
EXTT15=
PLAYORDER=
